<?xml version="1.0" encoding="iso-8859-1"?>
<!-- Uploaded to: SVG Repo, www.svgrepo.com, Generator: SVG Repo Mixer Tools -->
<svg height="800px" width="800px" version="1.1" id="Layer_1" xmlns="http://www.w3.org/2000/svg" xmlns:xlink="http://www.w3.org/1999/xlink" 
	 viewBox="0 0 512 512" xml:space="preserve">
<g>
	<path style="fill:#F95428;" d="M463.132,238.832c20.235,33.353,25.151,70.367,22.505,108.658
		c-1.528,22.117-5.544,43.767-14.315,64.264c-11.03,25.756-27.125,47.508-54.762,56.359c-49.002,15.684-93.875-2.635-106.947-62.85
		c-3.365-15.49-4.893-31.162-1.54-46.892l0.023-0.114c0.73-3.422,5.521-3.821,6.741-0.548c3.091,8.304,7.802,15.513,13.414,22.265
		c16.391,19.699,41.269,25.117,68.199,15.034c35.771-13.391,58.743-45.763,60.192-85.058c0.605-16.551-1.129-32.873-6.684-48.557
		c-9.159-25.858-40.174-35.018-61.139-16.882c-10.003,8.658-17.475,20.395-25.402,31.242c-8.623,11.794-16.22,24.33-24.684,36.25
		c-8.578,12.114-19.653,19.243-33.535,20.885c-2.065,0.24-14.475,0.228-25.904,0.194c-7.095-0.023-11.92,7.209-9.148,13.733
		c0.684,1.62,1.335,3.239,1.916,4.882c14.692,40.983,14.885,80.963-11.258,117.76c-13.391,18.832-30.547,34.436-54.032,39.261
		c-51.877,10.654-95.712-4.814-130.935-43.949c-30.353-33.752-44.634-74.484-48.854-119.072
		c-1.038-10.962-1.118-22.026-1.278-33.056c0-0.034,0-0.068,0-0.103c-0.046-4.414,6.228-5.544,7.779-1.414
		c0.023,0.057,0.046,0.114,0.068,0.171c7.665,21.832,14.349,44.052,23.11,65.428c7.346,17.92,16.87,35.189,33.889,46.173
		c25.984,16.79,54.899,22.117,85.286,19.266c9.49-0.901,19.197-3.205,28.026-6.787c32.372-13.152,43.983-52.002,24.889-81.34
		c-9-13.847-22.927-18.285-38.292-19.163c-7.825-0.445-16.368,3.764-23.589,0.65c-27.49-11.886-32.166-38.292-36.067-62.667
		c-0.798-4.95,3.262-9.319,8.258-8.897c5.053,0.422,9.958,0.833,14.84,1.3c15.422,1.471,30.592,0.73,45.272-4.756
		c11.509-4.3,19.939-12.091,25.984-22.687c3.011-5.27,2.852-11.806-0.228-17.03c-10.403-17.634-25.665-24.501-46.561-20.748
		c-24.022,4.323-45.626,14.965-67.196,25.71l-0.091,0.046c-5.007,2.487-11.087,0.707-13.962-4.095
		c-7.87-13.186-15.684-26.258-23.623-39.546c-2.236-3.741-1.426-8.578,1.962-11.315c10.003-8.076,20.543-15.125,32.2-20.509
		c25.71-11.851,52.618-18.901,81.054-17.383c35.6,1.893,59.587,22.288,69.237,56.804c7.334,26.223-0.913,49.219-13.688,71.439
		c-7.289,12.673-16.14,23.885-29.486,30.797c-1.335,0.696-2.452,1.848-4.779,3.627c10.699,4.141,20.292,8.726,30.375,11.532
		c12.399,3.468,24.262,0.354,32.645-9.445c7.985-9.331,14.749-19.79,21.319-30.204c8.863-14.064,16.46-28.961,25.63-42.808
		c14.657-22.151,36.193-31.334,62.416-33.216C420.7,188.711,444.962,208.867,463.132,238.832z"/>
	<path style="fill:#F95428;" d="M374.937,38.351c2.897,2.897,2.897,7.597,0,10.494l-36.17,36.181c-2.897,2.897-7.597,2.897-10.494,0
		l-36.181-36.181c-2.897-2.897-2.897-7.597,0-10.494l36.181-36.17c2.897-2.909,7.597-2.909,10.494,0L374.937,38.351z"/>
	<path style="fill:#F95428;" d="M448.657,105.992c6.707,9.878,6.045,12.444-3.034,19.802
		c-26.383,21.364-56.325,33.991-90.282,37.493c-27.763,2.863-53.428-1.494-75.864-19.026
		c-25.881-20.224-41.497-46.402-45.147-79.275c-0.639-5.737,4.38-9.216,6.753-5.384c7.3,11.783,16.619,21.866,27.284,30.877
		c30.239,25.562,63.602,29.394,98.78,12.764c14.087-6.65,26.782-16.414,39.649-25.425c12.319-8.646,12.125-9.08,21.399,2.224
		C435.175,88.563,442.486,96.9,448.657,105.992z"/>
</g>
</svg>